<svg width="19" height="18" viewBox="0 0 19 18" fill="none" xmlns="http://www.w3.org/2000/svg">
<path d="M16.7795 0H1.77954C1.38172 0 1.00019 0.158035 0.718881 0.43934C0.437576 0.720644 0.279541 1.10218 0.279541 1.5V16.5C0.279541 16.8978 0.437576 17.2794 0.718881 17.5607C1.00019 17.842 1.38172 18 1.77954 18H16.7795C17.1774 18 17.5589 17.842 17.8402 17.5607C18.1215 17.2794 18.2795 16.8978 18.2795 16.5V1.5C18.2795 1.10218 18.1215 0.720644 17.8402 0.43934C17.5589 0.158035 17.1774 0 16.7795 0ZM6.27954 8.25C6.27954 7.65666 6.45549 7.07664 6.78513 6.58329C7.11478 6.08994 7.58331 5.70542 8.13149 5.47836C8.67967 5.2513 9.28287 5.19189 9.86481 5.30764C10.4468 5.4234 10.9813 5.70912 11.4009 6.12868C11.8204 6.54824 12.1061 7.08279 12.2219 7.66473C12.3377 8.24667 12.2782 8.84987 12.0512 9.39805C11.8241 9.94623 11.4396 10.4148 10.9463 10.7444C10.4529 11.0741 9.87288 11.25 9.27954 11.25C8.48389 11.25 7.72083 10.9339 7.15822 10.3713C6.59561 9.80871 6.27954 9.04565 6.27954 8.25ZM3.71735 16.5C4.10115 15.5551 4.71818 14.723 5.51079 14.0812C6.57796 13.2198 7.90805 12.7499 9.27954 12.7499C10.651 12.7499 11.9811 13.2198 13.0483 14.0812C13.8409 14.723 14.4579 15.5551 14.8417 16.5H3.71735ZM16.7795 16.5H16.4355C16.102 15.4384 15.5362 14.4645 14.7792 13.649C14.0222 12.8334 13.0931 12.1968 12.0592 11.7853C12.7952 11.2072 13.3327 10.414 13.5967 9.51613C13.8608 8.61826 13.8383 7.6604 13.5325 6.77589C13.2266 5.89138 12.6526 5.12424 11.8903 4.58126C11.128 4.03828 10.2154 3.74648 9.27954 3.74648C8.34365 3.74648 7.43104 4.03828 6.66876 4.58126C5.90648 5.12424 5.33246 5.89138 5.02662 6.77589C4.72077 7.6604 4.69831 8.61826 4.96237 9.51613C5.22643 10.414 5.76386 11.2072 6.49985 11.7853C5.46602 12.1968 4.53685 12.8334 3.77986 13.649C3.02287 14.4645 2.45708 15.4384 2.1236 16.5H1.77954V1.5H16.7795V16.5Z" fill="#2D3748"/>
</svg>
