<svg width="23" height="24" viewBox="0 0 23 24" fill="none" xmlns="http://www.w3.org/2000/svg">
<path d="M21.6871 9.74103L12.5205 1.14097C12.516 1.13708 12.5118 1.1329 12.5079 1.12844C12.1704 0.823235 11.7306 0.654114 11.2744 0.654114C10.8182 0.654114 10.3784 0.823235 10.0409 1.12844L10.0283 1.14097L0.871937 9.74103C0.685163 9.91181 0.536075 10.1193 0.434104 10.3503C0.332134 10.5814 0.279502 10.8309 0.279541 11.0832V21.6168C0.279541 22.1003 0.472695 22.564 0.816512 22.9059C1.16033 23.2478 1.62664 23.4398 2.11287 23.4398H7.61287C8.0991 23.4398 8.56542 23.2478 8.90924 22.9059C9.25305 22.564 9.44621 22.1003 9.44621 21.6168V16.1478H13.1129V21.6168C13.1129 22.1003 13.306 22.564 13.6498 22.9059C13.9937 23.2478 14.46 23.4398 14.9462 23.4398H20.4462C20.9324 23.4398 21.3988 23.2478 21.7426 22.9059C22.0864 22.564 22.2795 22.1003 22.2795 21.6168V11.0832C22.2796 10.8309 22.2269 10.5814 22.125 10.3503C22.023 10.1193 21.8739 9.91181 21.6871 9.74103ZM20.4462 21.6168H14.9462V16.1478C14.9462 15.6643 14.7531 15.2006 14.4092 14.8587C14.0654 14.5168 13.5991 14.3248 13.1129 14.3248H9.44621C8.95998 14.3248 8.49366 14.5168 8.14985 14.8587C7.80603 15.2006 7.61287 15.6643 7.61287 16.1478V21.6168H2.11287V11.0832L2.12548 11.0718L11.2795 2.47519L20.4347 11.0696L20.4474 11.0809L20.4462 21.6168Z" fill="#2D3748"/>
</svg>
