<svg width="21" height="20" viewBox="0 0 21 20" fill="none" xmlns="http://www.w3.org/2000/svg">
<path d="M19.9298 13.8631C19.8228 13.7957 19.7006 13.7563 19.5744 13.7488C19.4482 13.7413 19.3221 13.7657 19.2079 13.82C18.9221 13.9551 18.6068 14.0158 18.2913 13.9965C17.9757 13.9771 17.6702 13.8782 17.4031 13.7091C17.136 13.5399 16.9161 13.306 16.7636 13.0291C16.6112 12.7521 16.5313 12.4411 16.5313 12.125C16.5313 11.8089 16.6112 11.4979 16.7636 11.2209C16.9161 10.9439 17.136 10.71 17.4031 10.5409C17.6702 10.3718 17.9757 10.2729 18.2913 10.2535C18.6068 10.2341 18.9221 10.2948 19.2079 10.43C19.3222 10.4842 19.4484 10.5087 19.5748 10.501C19.7011 10.4934 19.8234 10.4539 19.9304 10.3863C20.0373 10.3186 20.1254 10.225 20.1865 10.1141C20.2475 10.0032 20.2795 9.87873 20.2794 9.75217V5.74999C20.2794 5.35216 20.1214 4.97063 19.8401 4.68933C19.5588 4.40802 19.1773 4.24999 18.7794 4.24999H15.3838C15.3978 4.12548 15.4047 4.00028 15.4044 3.87499C15.4038 3.41404 15.3089 2.95809 15.1258 2.53508C14.9427 2.11207 14.6751 1.73092 14.3394 1.41499C13.8747 0.978498 13.2958 0.682582 12.6698 0.561505C12.0439 0.440429 11.3964 0.499145 10.8024 0.730855C10.2084 0.962565 9.69219 1.35779 9.31355 1.87076C8.9349 2.38373 8.70931 2.99347 8.66289 3.62936C8.64848 3.83621 8.65287 4.04393 8.67601 4.24999H5.27945C4.88162 4.24999 4.50009 4.40802 4.21879 4.68933C3.93748 4.97063 3.77945 5.35216 3.77945 5.74999V8.77061C3.65494 8.75666 3.52974 8.74977 3.40445 8.74999C2.94351 8.75073 2.48758 8.84557 2.06458 9.0287C1.64158 9.21183 1.26042 9.47939 0.944449 9.81499C0.626213 10.1511 0.38117 10.5497 0.224805 10.9854C0.0684403 11.421 0.0041549 11.8844 0.0360115 12.3462C0.0897565 13.1594 0.435271 13.9258 1.00901 14.5046C1.58276 15.0833 2.34616 15.4354 3.15882 15.4962C3.36566 15.5111 3.57343 15.5067 3.77945 15.4831V18.5C3.77945 18.8978 3.93748 19.2793 4.21879 19.5606C4.50009 19.842 4.88162 20 5.27945 20H18.7794C19.1773 20 19.5588 19.842 19.8401 19.5606C20.1214 19.2793 20.2794 18.8978 20.2794 18.5V14.4978C20.2795 14.3711 20.2475 14.2464 20.1863 14.1354C20.1252 14.0244 20.0369 13.9307 19.9298 13.8631ZM18.7794 18.5H5.27945V14.4978C5.27949 14.3712 5.2475 14.2467 5.18647 14.1359C5.12544 14.025 5.03734 13.9314 4.93038 13.8637C4.82342 13.7961 4.70109 13.7566 4.57476 13.7489C4.44843 13.7413 4.32222 13.7657 4.20789 13.82C3.9221 13.9551 3.60679 14.0158 3.29125 13.9965C2.97572 13.9771 2.67021 13.8782 2.40312 13.7091C2.13604 13.5399 1.91606 13.306 1.76363 13.0291C1.61119 12.7521 1.53126 12.4411 1.53126 12.125C1.53126 11.8089 1.61119 11.4979 1.76363 11.2209C1.91606 10.9439 2.13604 10.71 2.40312 10.5409C2.67021 10.3718 2.97572 10.2729 3.29125 10.2535C3.60679 10.2341 3.9221 10.2948 4.20789 10.43C4.32222 10.4842 4.44843 10.5087 4.57476 10.501C4.70109 10.4934 4.82342 10.4539 4.93038 10.3863C5.03734 10.3186 5.12544 10.225 5.18647 10.1141C5.2475 10.0032 5.27949 9.87873 5.27945 9.75217V5.74999H9.65664C9.7832 5.75003 9.90771 5.71804 10.0186 5.65701C10.1294 5.59597 10.2231 5.50788 10.2907 5.40092C10.3584 5.29396 10.3979 5.17162 10.4055 5.0453C10.4132 4.91897 10.3887 4.79276 10.3344 4.67842C10.1993 4.39264 10.1386 4.07732 10.158 3.76179C10.1774 3.44625 10.2762 3.14074 10.4454 2.87366C10.6145 2.60658 10.8484 2.3866 11.1254 2.23416C11.4023 2.08173 11.7133 2.0018 12.0294 2.0018C12.3456 2.0018 12.6566 2.08173 12.9335 2.23416C13.2105 2.3866 13.4444 2.60658 13.6135 2.87366C13.7827 3.14074 13.8815 3.44625 13.9009 3.76179C13.9203 4.07732 13.8596 4.39264 13.7244 4.67842C13.6702 4.79276 13.6457 4.91897 13.6534 5.0453C13.661 5.17162 13.7005 5.29396 13.7682 5.40092C13.8358 5.50788 13.9295 5.59597 14.0403 5.65701C14.1512 5.71804 14.2757 5.75003 14.4023 5.74999H18.7794V8.77155C18.5734 8.74795 18.3657 8.74355 18.1588 8.75842C17.2859 8.82023 16.4712 9.21867 15.8864 9.86968C15.3016 10.5207 14.9926 11.3734 15.0245 12.2479C15.0563 13.1224 15.4266 13.9503 16.0572 14.557C16.6878 15.1638 17.5294 15.5019 18.4044 15.5C18.5297 15.5002 18.6549 15.4933 18.7794 15.4794V18.5Z" fill="#2D3748"/>
</svg>
