<svg width="25" height="23" viewBox="0 0 25 23" fill="none" xmlns="http://www.w3.org/2000/svg">
<path d="M23.4224 21.0714H20.851V2.21429C20.851 1.75963 20.6704 1.32359 20.3489 1.0021C20.0274 0.680612 19.5913 0.5 19.1367 0.5H5.4224C4.96774 0.5 4.53171 0.680612 4.21022 1.0021C3.88872 1.32359 3.70811 1.75963 3.70811 2.21429V21.0714H1.13668C0.909355 21.0714 0.691338 21.1617 0.530592 21.3225C0.369847 21.4832 0.279541 21.7012 0.279541 21.9286C0.279541 22.1559 0.369847 22.3739 0.530592 22.5347C0.691338 22.6954 0.909355 22.7857 1.13668 22.7857H23.4224C23.6497 22.7857 23.8677 22.6954 24.0285 22.5347C24.1892 22.3739 24.2795 22.1559 24.2795 21.9286C24.2795 21.7012 24.1892 21.4832 24.0285 21.3225C23.8677 21.1617 23.6497 21.0714 23.4224 21.0714ZM19.1367 2.21429V21.0714H17.4224V2.21429H19.1367ZM5.4224 2.21429H15.7081V21.0714H5.4224V2.21429ZM13.9938 12.0714C13.9938 12.3257 13.9184 12.5743 13.7771 12.7857C13.6359 12.9972 13.4351 13.162 13.2001 13.2593C12.9652 13.3566 12.7067 13.382 12.4573 13.3324C12.2079 13.2828 11.9788 13.1604 11.799 12.9806C11.6192 12.8008 11.4967 12.5717 11.4471 12.3223C11.3975 12.0729 11.423 11.8143 11.5203 11.5794C11.6176 11.3445 11.7824 11.1437 11.9938 11.0024C12.2052 10.8611 12.4538 10.7857 12.7081 10.7857C13.0491 10.7857 13.3761 10.9212 13.6172 11.1623C13.8584 11.4034 13.9938 11.7304 13.9938 12.0714Z" fill="#2D3748"/>
</svg>
