<?xml version="1.0" encoding="UTF-8"?>
<svg id="Calque_1" data-name="Calque 1" xmlns="http://www.w3.org/2000/svg" xmlns:xlink="http://www.w3.org/1999/xlink" viewBox="0 0 2026.93 755.26">
  <defs>
    <style>
      .cls-1 {
        fill: url(#linear-gradient-2);
      }

      .cls-2 {
        fill: url(#linear-gradient-6);
      }

      .cls-3 {
        fill: #101010;
      }

      .cls-4 {
        fill: url(#linear-gradient-5);
      }

      .cls-5 {
        fill: url(#linear-gradient-3);
      }

      .cls-6 {
        fill: url(#linear-gradient);
      }

      .cls-7 {
        fill: url(#linear-gradient-4);
      }
    </style>
    <linearGradient id="linear-gradient" x1="-1098.07" y1="-390.17" x2="-858.5" y2="-390.17" gradientTransform="translate(957.18 1182.44) rotate(20.74)" gradientUnits="userSpaceOnUse">
      <stop offset="0" stop-color="#81338a"/>
      <stop offset="1" stop-color="#c26aa7"/>
    </linearGradient>
    <linearGradient id="linear-gradient-2" x1="500.4" y1="458.56" x2="500.4" y2="281.87" gradientTransform="matrix(1, 0, 0, 1, 0, 0)" xlink:href="#linear-gradient"/>
    <linearGradient id="linear-gradient-3" x1="650.16" y1="458.56" x2="650.16" y2="281.87" gradientTransform="matrix(1, 0, 0, 1, 0, 0)" xlink:href="#linear-gradient"/>
    <linearGradient id="linear-gradient-4" x1="797.84" y1="458.56" x2="797.84" y2="281.87" gradientTransform="matrix(1, 0, 0, 1, 0, 0)" xlink:href="#linear-gradient"/>
    <linearGradient id="linear-gradient-5" x1="960.88" y1="458.56" x2="960.88" y2="281.87" gradientTransform="matrix(1, 0, 0, 1, 0, 0)" xlink:href="#linear-gradient"/>
    <linearGradient id="linear-gradient-6" x1="1119.3" y1="458.56" x2="1119.3" y2="281.87" gradientTransform="matrix(1, 0, 0, 1, 0, 0)" xlink:href="#linear-gradient"/>
  </defs>
  <g>
    <path class="cls-3" d="m382.47,87.49h0c0,.77-.14,2.36-.41,4.63-.16,1.31-.36,2.84-.6,4.58-.02.17-.04.32-.06.47-3.99,29.21-18.1,112.42-23.14,136.22,0,0-23.88,4.26-53.32,12.01h-.03s-.06.02-.09.03c-19.41,4.83-66.43,18.2-103.42,35.37h.02c-46.07,20.23-88.76,46.48-129.15,76.81-4.88,3.65-9.77,7.28-16.24,12.11,1.05-4.24,1.41-6.77,2.3-9.09,25.4-66.04,64.16-122.76,118.02-168.95,42.07-36.08,89.63-62.8,140.95-83.19,17.66-7.02,35.67-13.02,53.82-18.54,1.44-.44,2.87-.87,4.29-1.29h0c1.31-.39,4.27-1.32,7.16-2.22-.03.33-.07.69-.11,1.06Z"/>
    <path class="cls-6" d="m345.16,292.76c-.26,1.67-.56,3.57-.87,5.59,0,1.49-.41,2.98-.69,4.41,0,.03,0,.04-.01.07-.19,1.21-.39,2.45-.57,3.69-.2,1.24-.39,2.5-.58,3.74-.03.18-.05.37-.09.55-.14.92-.28,1.86-.43,2.78-.08.51-.15,1.01-.23,1.51-.09.61-.18,1.2-.28,1.8-.13.86-.27,1.72-.4,2.59-.48,3.08-.91,5.82-1.23,7.94-.06.36-.11.73-.17,1.09-.06.34-.11.66-.15.96-2.53,16.34-5.1,32.68-7.64,49.01-2.31,14.76-4.63,29.52-7,44.28-.54,3.37-1.26,6.71-2.01,10.61-3.27,1.14-6.43,2.37-9.67,3.37-35.96,11.02-71.11,24.06-104.28,41.98-20.99,11.34-40.71,24.53-57.96,41.16-20.01,19.29-34.85,41.65-41.35,69.07-4.89,20.58-4.28,41.16.42,61.54,2.57,11.16,6.73,21.95,10.18,32.89.68,2.15,1.39,4.29,2.08,6.43-29.51-33.6-54.36-69.77-69.02-112.02-7.09-20.44-11.12-41.39-10.09-63.2,1.42-30.16,12.21-56.68,30.47-80.4,12.73-16.54,27.99-30.47,44.65-42.93,26.23-19.61,54.88-35.01,84.66-48.38,33.45-15.02,67.78-27.63,102.74-38.49,4.41-1.38,8.82-2.73,13.25-4.05.4-.11.81-.24,1.23-.37.68-.2,1.39-.41,2.12-.62.49-.14.99-.29,1.49-.43,1.84-.55,3.7-1.09,5.55-1.61,1.08-.31,2.18-.62,3.27-.94.43-.12.86-.25,1.29-.37.38-.11.75-.21,1.13-.32,2.46-.71,4.9-1.45,7.27-2.14.01.02.03.02.04.04,1.04-.3,2.01-.57,2.89-.82Z"/>
  </g>
  <g>
    <g>
      <path class="cls-1" d="m425.53,455.74l8.27-84.44c2.95-32.18,19.2-49.01,48.76-50.49l92.71.1-3.27,32.89h-82.13c-6.99-.26-12.02,3.01-15.1,9.81l-.67,7.02,96.46-.1-3.27,32.41-95.88-.1-5.39,52.89h-40.49Z"/>
      <path class="cls-5" d="m677.51,457.37h-63.86c-28.4.13-40.23-22.73-35.49-68.57,4.42-46.35,21.7-69.66,51.83-69.92l52.41.1c31.48-.58,44.72,21.8,39.72,67.13-2.12,46.93-16.99,70.68-44.62,71.26Zm-62.51-46.74c1.92,6.15,5.87,9.81,11.83,10.96l37.7-.1c6.41-.7,10.9-3.62,13.46-8.75,3.14-3.59,5.32-12.36,6.54-26.3,1.22-13.94.26-22.84-2.88-26.69-3.01-4.04-7.69-6.35-14.04-6.92h-29.04c-8.4.64-14.36,4.71-17.89,12.21-2.31,3.46-4.14,11.3-5.48,23.51-1.35,12.21-1.41,19.57-.19,22.07Z"/>
      <path class="cls-7" d="m737.83,320.81h93.28c28.21,4.68,41.61,19.94,40.2,45.78-.38,18.91-7.89,33.88-22.5,44.91l18.85,44.33h-44.91l-18.27-42.41h-35.68l-4.13,41.93-40.39.1,13.56-134.64Zm35.2,57.03l49.53.1c7.56-.13,11.91-3.77,13.03-10.92,1.12-7.15-2.32-11.33-10.34-12.55h-49.91l-2.31,23.37Z"/>
      <path class="cls-4" d="m874.79,456.03l13.56-135.31,120.69.29c26.67-.77,39.27,13.46,37.79,42.7l-9.23,92.23h-34.14l8.08-81.65c1.92-10.13-.99-15.07-8.75-14.81l-18.08.1-9.71,96.27-34.04.1,9.62-96.65-29.14-.1-9.62,96.84h-37.02Z"/>
      <path class="cls-2" d="m1048.3,455.06l9.14-91.65c4.23-27.57,20.87-41.96,49.91-43.18l45.58.1c26.41,1.8,38.82,16.06,37.22,42.8l-9.23,92.13h-35.78l4.14-40.97-59.82-.29-4.04,41.06h-37.12Zm46.26-88.76l-1.54,14.33h59.72l1.25-11.25c1.92-10.39-1.09-16.19-9.04-17.41l-36.16.1c-9.62.26-14.36,5-14.23,14.23Z"/>
    </g>
    <g>
      <path class="cls-3" d="m1192.09,455.74l8.27-84.44c2.95-32.18,19.2-49.01,48.76-50.49l92.71.1-3.27,32.89h-82.13c-6.99-.26-12.02,3.01-15.1,9.81l-.67,7.02,96.46-.1-3.27,32.41-95.88-.1-5.39,52.89h-40.49Z"/>
      <path class="cls-3" d="m1485.62,320.91l-13.56,134.83h-91.07c-26.35.51-38.79-13.78-37.31-42.89l9.23-91.84h35.68l-8.94,84.15c-1.6,8.72,1.6,12.79,9.62,12.21h49.62l9.62-96.36,37.12-.1Z"/>
      <path class="cls-3" d="m1616.91,356.01h-74.53c-5.07,0-8.96.24-11.68.72-2.73.48-5.11,2.45-7.16,5.91.64,4.36,2.37,6.81,5.19,7.36,2.82.55,7.18.82,13.08.82h36.45c14.62.83,24.84,5.07,30.68,12.69,5.83,7.63,8.08,18.27,6.73,31.93-2.18,13.66-6.99,23.74-14.43,30.24-7.44,6.51-19.71,9.89-36.83,10.15h-81.36l3.46-34.52h77.32c6.67,0,11.75-.24,15.24-.72,3.49-.48,5.88-3.06,7.16-7.74-.45-3.72-2.23-5.95-5.34-6.68-3.11-.74-8.32-1.11-15.63-1.11h-35.2c-15.52,0-26.49-3.78-32.94-11.35-6.44-7.56-8.99-18.05-7.65-31.45,2.5-14.04,7.56-24.23,15.2-30.58,7.63-6.35,19.71-9.91,36.26-10.67h79.44l-3.46,35.01Z"/>
      <path class="cls-3" d="m1632.22,321.01h39.33l-13.37,134.64h-40.2l14.23-134.64Z"/>
      <path class="cls-3" d="m1774.47,457.37h-63.86c-28.4.13-40.23-22.73-35.49-68.57,4.42-46.35,21.7-69.66,51.83-69.92l52.41.1c31.48-.58,44.72,21.8,39.72,67.13-2.12,46.93-16.99,70.68-44.62,71.26Zm-62.51-46.74c1.92,6.15,5.87,9.81,11.83,10.96l37.7-.1c6.41-.7,10.9-3.62,13.46-8.75,3.14-3.59,5.32-12.36,6.54-26.3,1.22-13.94.26-22.84-2.88-26.69-3.01-4.04-7.69-6.35-14.04-6.92h-29.04c-8.4.64-14.36,4.71-17.89,12.21-2.31,3.46-4.14,11.3-5.48,23.51-1.35,12.21-1.41,19.57-.19,22.07Z"/>
      <path class="cls-3" d="m1822.67,456.03l13.56-135.31h91.46c26.41-.58,38.88,13.75,37.41,42.99l-9.23,92.23h-35.87l9.04-84.53c1.6-8.72-1.63-12.79-9.71-12.21h-49.82l-9.62,96.84h-37.22Z"/>
    </g>
  </g>
</svg>